PathFileType	4	(X/Y/Z)	/Users/itak/Documents/Research/Walk-IL/dataset/trc/00028_00004.trc
DataRate	CameraRate	NumFrames	NumMarkers	Units	OrigDataRate	OrigDataStartFrame	OrigNumFrames
100.000000	100.000000	4	53	mm	100.000000	553	633
Frame#	Time	RPSI			LPSI			L3			STRN			T10			C7			CLAV			RBAK			LBAK			LSHO			LUPA			LAEL			LAOL			LWTS			LWPS			LFRA			LIFD			LHPS			LHTS			RSHO			RUPA			RAEL			RAOL			RWTS			RWPS			RFRA			RIFD			RHTS			RHPS			RBHD			LFHD			RFHD			LBHD			LHIP			RHIP			RASI			LASI			LKNE			LTHI			LANK			LTIP			LTOE			LMT1			LMT5			LHEE			RKNE			RTHI			RANK			RTIP			RTOE			RMT1			RMT5			RHEE			
		X1	Y1	Z1	X2	Y2	Z2	X3	Y3	Z3	X4	Y4	Z4	X5	Y5	Z5	X6	Y6	Z6	X7	Y7	Z7	X8	Y8	Z8	X9	Y9	Z9	X10	Y10	Z10	X11	Y11	Z11	X12	Y12	Z12	X13	Y13	Z13	X14	Y14	Z14	X15	Y15	Z15	X16	Y16	Z16	X17	Y17	Z17	X18	Y18	Z18	X19	Y19	Z19	X20	Y20	Z20	X21	Y21	Z21	X22	Y22	Z22	X23	Y23	Z23	X24	Y24	Z24	X25	Y25	Z25	X26	Y26	Z26	X27	Y27	Z27	X28	Y28	Z28	X29	Y29	Z29	X30	Y30	Z30	X31	Y31	Z31	X32	Y32	Z32	X33	Y33	Z33	X34	Y34	Z34	X35	Y35	Z35	X36	Y36	Z36	X37	Y37	Z37	X38	Y38	Z38	X39	Y39	Z39	X40	Y40	Z40	X41	Y41	Z41	X42	Y42	Z42	X43	Y43	Z43	X44	Y44	Z44	X45	Y45	Z45	X46	Y46	Z46	X47	Y47	Z47	X48	Y48	Z48	X49	Y49	Z49	X50	Y50	Z50	X51	Y51	Z51	X52	Y52	Z52	X53	Y53	Z53	

554	5.53	548.3187866210938	1078.801147460938	1013.20166015625	581.7537841796875	1065.982055664062	1172.589965820312	573.24658203125	1132.966064453125	1104.458618164062	356.6911315917969	1322.233154296875	1142.031127929688	602.2327880859375	1276.635864257812	1113.948974609375	553.1007690429688	1543.588500976562	1141.842651367188	397.3428039550781	1448.397094726562	1146.739990234375	601.94482421875	1411.064331054688	1052.300537109375	581.6288452148438	1499.597290039062	1234.739013671875	487.7733459472656	1502.94189453125	1317.367309570312	529.8228149414062	1379.917724609375	1391.74609375	538.9228515625	1165.6220703125	1421.435546875	583.2597045898438	1149.146728515625	1326.698974609375	403.2995300292969	934.775634765625	1377.989990234375	480.6940307617188	905.0416259765625	1411.350708007812	510.9999084472656	1053.086547851562	1430.893676757812	343.6489562988281	756.4810791015625	1363.735961914062	430.3632507324219	823.6609497070312	1414.356811523438	366.4863891601562	846.7384643554688	1392.7802734375	462.6312561035156	1531.692749023438	974.528076171875	475.3309020996094	1466.941162109375	900.6334838867188	535.8598022460938	1208.244750976562	855.484375	540.7877807617188	1174.904907226562	949.900146484375	420.6504516601562	940.6817626953125	873.6871337890625	484.4521484375	931.4265747070312	807.7457275390625	528.439208984375	1131.70361328125	835.1937255859375	413.2591247558594	754.6104736328125	888.0952758789062	391.6808776855469	830.86669921875	858.8226318359375	447.93359375	828.1407470703125	807.9029541015625	484.0838317871094	1725.23193359375	1210.297607421875	314.9236755371094	1725.591796875	1072.731079101562	307.2385559082031	1730.994750976562	1171.126342773438	489.4925537109375	1714.935546875	1066.525268554688	504.46435546875	960.2916870117188	1293.2744140625	414.5718994140625	967.1275024414062	929.2272338867188	331.6529541015625	1001.941345214844	1022.971130371094	379.7803955078125	1008.813293457031	1253.506591796875	394.785888671875	526.5675659179688	1252.319213867188	442.8618469238281	658.2901611328125	1283.602416992188	477.99609375	39.54313659667969	1227.35595703125	465.0278015136719	284.6950378417969	1253.069458007812	252.1588897705078	40.14598083496094	1179.760131835938	310.9185791015625	48.75028228759766	1160.826904296875	356.1277465820312	36.30139541625977	1259.862548828125	541.2086791992188	47.07345581054688	1169.923583984375	344.42578125	531.7324829101562	976.9700927734375	374.3109436035156	803.6525268554688	934.727783203125	530.990966796875	62.31486892700195	971.7630004882812	380.9260864257812	406.1576538085938	970.9097900390625	309.1228332519531	57.08803939819336	1047.832275390625	377.255859375	59.7930793762207	1067.396606445312	380.15966796875	55.39368438720703	972.6394653320312	592.0701293945312	66.44601440429688	1009.456604003906	
555	5.54	546.2266235351562	1078.846313476562	1014.593933105469	579.460205078125	1066.00390625	1174.031982421875	571.01708984375	1132.908569335938	1105.859375	354.6007995605469	1322.414672851562	1142.9326171875	600.1439819335938	1276.5693359375	1115.321044921875	551.2506713867188	1543.577392578125	1143.084228515625	395.3477783203125	1448.557495117188	1147.698608398438	600.0836181640625	1410.9736328125	1053.635986328125	579.554931640625	1499.552856445312	1236.035888671875	485.5610046386719	1502.990844726562	1318.5166015625	527.3026123046875	1379.861572265625	1392.908813476562	535.8778686523438	1165.43896484375	1422.373901367188	580.4439697265625	1149.026977539062	1327.71533203125	400.3670043945312	934.584228515625	1378.290405273438	477.6637878417969	904.8391723632812	1411.829956054688	507.9152221679688	1052.874755859375	1431.61474609375	340.0516967773438	756.7702026367188	1363.42529296875	427.3687744140625	823.4417114257812	1414.619995117188	363.4998779296875	846.475341796875	1392.855712890625	461.1033020019531	1531.790161132812	975.6075439453125	473.8073425292969	1467.005004882812	901.7406005859375	533.8901977539062	1208.075317382812	856.8302612304688	538.7298583984375	1174.850463867188	951.2850341796875	417.3357238769531	941.1341552734375	875.6788330078125	481.0102233886719	931.369384765625	809.6958618164062	526.1738891601562	1131.463623046875	836.6597290039062	408.9424438476562	755.1491088867188	890.5078735351562	387.7409057617188	831.3601684570312	861.1553344726562	443.8419189453125	828.283203125	810.0830688476562	482.9037780761719	1725.026611328125	1211.47265625	313.7485961914062	1726.396118164062	1073.92919921875	306.0702819824219	1731.774169921875	1172.310424804688	488.2575378417969	1714.798706054688	1067.704711914062	501.9888305664062	960.2984619140625	1294.562744140625	412.7198791503906	967.21875	930.4984130859375	329.4842834472656	1002.105590820312	1024.034912109375	377.231201171875	1008.846984863281	1254.591674804688	393.9666748046875	526.3021850585938	1252.8408203125	441.2494506835938	658.2066040039062	1284.232543945312	477.9880981445312	39.54529190063477	1227.33935546875	464.6771240234375	284.6186218261719	1253.342895507812	252.1472320556641	40.14104461669922	1179.77587890625	310.9266052246094	48.74288940429688	1160.834838867188	356.1246643066406	36.29827117919922	1259.8603515625	541.1586303710938	47.06300354003906	1169.970825195312	343.416259765625	531.9164428710938	978.4114379882812	372.5385437011719	803.6907958984375	935.9415893554688	524.3428955078125	60.50763320922852	975.3892211914062	378.7953796386719	406.1796569824219	972.7583618164062	301.7367248535156	57.55877304077148	1049.218994140625	369.6981811523438	59.5484619140625	1069.52099609375	373.5447998046875	55.1011962890625	974.8034057617188	585.0888671875	64.10124969482422	1013.741943359375	
556	5.55	544.1522216796875	1078.863037109375	1015.919982910156	577.2122192382812	1065.999267578125	1175.405517578125	568.826171875	1132.819091796875	1107.18798828125	352.5858459472656	1322.563110351562	1143.792358398438	598.1061401367188	1276.470458984375	1116.605102539062	549.4595336914062	1543.54248046875	1144.2314453125	393.4312744140625	1448.690185546875	1148.59521484375	598.26708984375	1410.845703125	1054.878173828125	577.561767578125	1499.484741210938	1237.23876953125	483.4387512207031	1503.017211914062	1319.5849609375	524.8912963867188	1379.787841796875	1393.989135742188	533.0016479492188	1165.238525390625	1423.20947265625	577.7793579101562	1148.912109375	1328.619995117188	397.662109375	934.3385009765625	1378.472778320312	474.8733825683594	904.601806640625	1412.184814453125	505.0211181640625	1052.63623046875	1432.2236328125	336.708251953125	757.0122680664062	1362.962646484375	424.6584777832031	823.1714477539062	1414.754638671875	360.7852172851562	846.163330078125	1392.812866210938	459.6090393066406	1531.846801757812	976.606201171875	472.3110656738281	1467.026977539062	902.766845703125	531.9338989257812	1207.869384765625	858.0885009765625	536.680419921875	1174.741821289062	952.5725708007812	414.0366516113281	941.5667724609375	877.5516357421875	477.5605163574219	931.2965087890625	811.5175170898438	523.9065551757812	1131.190307617188	838.0256958007812	404.6237182617188	755.6620483398438	892.759033203125	383.8341064453125	831.80078125	863.3857421875	439.75048828125	828.419921875	812.1151123046875	481.8064880371094	1724.7978515625	1212.57666015625	312.6530151367188	1727.189331054688	1075.042236328125	304.9523620605469	1732.533325195312	1173.3798828125	487.0902404785156	1714.61767578125	1068.796875	499.5786743164062	960.2845458984375	1295.79833984375	410.9171142578125	967.2755126953125	931.7401733398438	327.3191223144531	1002.242126464844	1025.070922851562	374.7562866210938	1008.868591308594	1255.645874023438	393.1180114746094	526.0430908203125	1253.360473632812	439.6675109863281	658.104736328125	1284.860717773438	477.9795227050781	39.5438346862793	1227.32177734375	464.2972717285156	284.5322875976562	1253.616333007812	252.1365966796875	40.13553237915039	1179.787963867188	310.9282836914062	48.73840713500977	1160.83740234375	356.123779296875	36.29631042480469	1259.855224609375	541.1331787109375	47.07186889648438	1169.99755859375	342.5032043457031	532.0693359375	979.7717895507812	370.7851867675781	803.6963500976562	937.1640014648438	518.3348999023438	58.96898651123047	978.7637329101562	376.88037109375	406.2091979980469	974.46142578125	294.9735717773438	57.86458206176758	1050.078369140625	362.7312622070312	59.2280387878418	1071.226684570312	367.6183166503906	54.83955764770508	976.5477905273438	578.7061157226562	62.07422637939453	1017.833312988281	
557	5.56	542.0901489257812	1078.85498046875	1017.176452636719	575.0086669921875	1065.96826171875	1176.709594726562	566.6740112304688	1132.702392578125	1108.443115234375	350.6502990722656	1322.685913085938	1144.619018554688	596.113037109375	1276.342651367188	1117.801391601562	547.72607421875	1543.486206054688	1145.289306640625	391.5916137695312	1448.80029296875	1149.434326171875	596.4947509765625	1410.684326171875	1056.02734375	575.6448974609375	1499.396728515625	1238.349365234375	481.4063110351562	1503.027954101562	1320.576049804688	522.5875244140625	1379.6943359375	1394.989379882812	530.2869262695312	1165.02197265625	1423.948608398438	575.2600708007812	1148.802734375	1329.420166015625	395.1852722167969	934.0399169921875	1378.548583984375	472.3206787109375	904.3316650390625	1412.422241210938	502.3134460449219	1052.37158203125	1432.727905273438	333.720947265625	757.1412963867188	1362.395629882812	422.2284240722656	822.8453369140625	1414.761108398438	358.3415222167969	845.7992553710938	1392.662109375	458.138427734375	1531.867065429688	977.526611328125	470.8345031738281	1467.010498046875	903.7145385742188	529.983154296875	1207.630859375	859.2638549804688	534.634765625	1174.584838867188	953.7676391601562	410.7610473632812	941.9779052734375	879.306884765625	474.1112060546875	931.2092895507812	813.2127685546875	521.6311645507812	1130.88916015625	839.2955932617188	400.287841796875	756.1537475585938	894.8340454101562	379.9776000976562	832.1986694335938	865.502685546875	435.6743774414062	828.5538940429688	814.0033569335938	480.7801513671875	1724.550537109375	1213.611694335938	311.6321716308594	1727.965698242188	1076.065185546875	303.891357421875	1733.277465820312	1174.342529296875	485.987548828125	1714.396240234375	1069.805908203125	497.2359619140625	960.2525634765625	1296.981323242188	409.1357421875	967.3048706054688	932.9492797851562	325.1592407226562	1002.351257324219	1026.081665039062	372.3687438964844	1008.881774902344	1256.682006835938	392.2508239746094	525.7879028320312	1253.885620117188	438.1289978027344	657.9890747070312	1285.488037109375	477.9708557128906	39.53713607788086	1227.304565429688	463.9024047851562	284.4415283203125	1253.885009765625	252.1281433105469	40.12949371337891	1179.798583984375	310.9247131347656	48.73619842529297	1160.835571289062	356.1252136230469	36.29468154907227	1259.84814453125	541.1357421875	47.10168075561523	1170	341.6702270507812	532.1936645507812	981.0302734375	369.0484008789062	803.6762084960938	938.369384765625	512.94287109375	57.65802383422852	981.8959350585938	375.1631469726562	406.2373962402344	976.0185546875	288.8590087890625	57.97504425048828	1050.602905273438	356.3827514648438	58.83016586303711	1072.631225585938	362.3417358398438	54.54469680786133	977.9946899414062	572.9215087890625	60.34437561035156	1021.679626464844	
